<svg xmlns="http://www.w3.org/2000/svg" class="T1iw __4B88" viewBox="0 0 24 24"><path d="M12.005 1.2C17.527 1.2 22.01 4.834 22 9.319c0 4.485-4.483 8.119-10.005 8.119-.606 0-1.202-.05-1.78-.129-.577.416-3.905 2.822-4.223 2.872 0 0-.134.05-.24-.01-.106-.06-.087-.238-.087-.238.039-.237.866-3.188 1.02-3.733C3.875 14.765 2 12.22 2 9.32 2 4.834 6.483 1.2 12.005 1.2zM6.473 12.15a.554.554 0 0 0 .568-.564V8.062h.904a.57.57 0 0 0 .568-.585.577.577 0 0 0-.568-.584H4.992a.57.57 0 0 0-.568.584c0 .327.26.585.568.585h.904v3.524c0 .307.26.565.577.565zm6.494-.078v-.01h1.847a.554.554 0 0 0 .558-.545.554.554 0 0 0-.558-.544h-1.232V7.487a.59.59 0 0 0-.586-.594.59.59 0 0 0-.587.594v4.04c0 .297.25.545.558.545zm3.203.069a.575.575 0 0 0 .577-.565V10.28l.202-.207 1.357 1.841a.582.582 0 0 0 .462.238c.125 0 .24-.04.346-.12a.602.602 0 0 0 .106-.832l-1.424-1.94 1.318-1.356a.5.5 0 0 0 .125-.366.591.591 0 0 0-.173-.376.526.526 0 0 0-.395-.179c-.125 0-.23.04-.317.129l-1.607 1.654V7.487a.588.588 0 0 0-.577-.594.588.588 0 0 0-.577.594v4.06c0 .327.26.594.577.594zm-4.637 0c.125 0 .26-.02.366-.08.154-.069.308-.277.135-.841l-1.376-3.743c-.096-.287-.394-.574-.77-.584-.375.01-.673.297-.77.584L7.735 11.22c-.174.555-.03.762.134.842.116.05.24.079.366.079.24 0 .423-.1.48-.258l.29-.772h1.76l.288.772c.058.159.24.258.481.258zm-1.067-2.08H9.31l.577-1.683.578 1.684z"/></svg>