<svg xmlns="http://www.w3.org/2000/svg" class="T1iw __4B88" viewBox="0 0 24 24"><path d="M21 6.774a7.273 7.273 0 0 1-2.122.596 3.781 3.781 0 0 0 1.625-2.093 7.3 7.3 0 0 1-2.345.918A3.648 3.648 0 0 0 15.462 5c-2.04 0-3.693 1.694-3.693 3.783 0 .297.032.586.095.862-3.069-.157-5.79-1.663-7.611-3.952a3.834 3.834 0 0 0-.5 1.902c0 1.313.652 2.47 1.643 3.148a3.608 3.608 0 0 1-1.674-.472v.047c0 1.833 1.274 3.363 2.962 3.71a3.601 3.601 0 0 1-1.667.065c.47 1.504 1.834 2.597 3.45 2.628A7.297 7.297 0 0 1 3 18.288a10.27 10.27 0 0 0 5.661 1.7c6.792 0 10.507-5.766 10.507-10.766 0-.164-.004-.327-.01-.49A7.637 7.637 0 0 0 21 6.774"/></svg>